%TF.GenerationSoftware,KiCad,Pcbnew,10.0.3*%
%TF.CreationDate,2026-05-25T02:31:49+03:00*%
%TF.ProjectId,PS,50532e6b-6963-4616-945f-706362585858,rev?*%
%TF.SameCoordinates,Original*%
%TF.FileFunction,Copper,L2,Bot*%
%TF.FilePolarity,Positive*%
%FSLAX46Y46*%
G04 Gerber Fmt 4.6, Leading zero omitted, Abs format (unit mm)*
G04 Created by KiCad (PCBNEW 10.0.3) date 2026-05-25 02:31:49*
%MOMM*%
%LPD*%
G01*
G04 APERTURE LIST*
G04 Aperture macros list*
%AMRoundRect*
0 Rectangle with rounded corners*
0 $1 Rounding radius*
0 $2 $3 $4 $5 $6 $7 $8 $9 X,Y pos of 4 corners*
0 Add a 4 corners polygon primitive as box body*
4,1,4,$2,$3,$4,$5,$6,$7,$8,$9,$2,$3,0*
0 Add four circle primitives for the rounded corners*
1,1,$1+$1,$2,$3*
1,1,$1+$1,$4,$5*
1,1,$1+$1,$6,$7*
1,1,$1+$1,$8,$9*
0 Add four rect primitives between the rounded corners*
20,1,$1+$1,$2,$3,$4,$5,0*
20,1,$1+$1,$4,$5,$6,$7,0*
20,1,$1+$1,$6,$7,$8,$9,0*
20,1,$1+$1,$8,$9,$2,$3,0*%
G04 Aperture macros list end*
%TA.AperFunction,ComponentPad*%
%ADD10RoundRect,0.250000X-0.550000X-0.550000X0.550000X-0.550000X0.550000X0.550000X-0.550000X0.550000X0*%
%TD*%
%TA.AperFunction,ComponentPad*%
%ADD11C,1.600000*%
%TD*%
%TA.AperFunction,ComponentPad*%
%ADD12RoundRect,0.250000X0.550000X0.550000X-0.550000X0.550000X-0.550000X-0.550000X0.550000X-0.550000X0*%
%TD*%
%TA.AperFunction,ComponentPad*%
%ADD13RoundRect,0.250000X-0.750000X0.600000X-0.750000X-0.600000X0.750000X-0.600000X0.750000X0.600000X0*%
%TD*%
%TA.AperFunction,ComponentPad*%
%ADD14O,2.000000X1.700000*%
%TD*%
%TA.AperFunction,ComponentPad*%
%ADD15C,1.800000*%
%TD*%
%TA.AperFunction,ComponentPad*%
%ADD16RoundRect,0.250001X-1.149999X1.149999X-1.149999X-1.149999X1.149999X-1.149999X1.149999X1.149999X0*%
%TD*%
%TA.AperFunction,ComponentPad*%
%ADD17C,2.800000*%
%TD*%
%TA.AperFunction,ComponentPad*%
%ADD18RoundRect,0.250001X1.149999X-1.149999X1.149999X1.149999X-1.149999X1.149999X-1.149999X-1.149999X0*%
%TD*%
%TA.AperFunction,ComponentPad*%
%ADD19R,3.600000X3.600000*%
%TD*%
%TA.AperFunction,ComponentPad*%
%ADD20C,3.600000*%
%TD*%
%TA.AperFunction,ComponentPad*%
%ADD21C,1.400000*%
%TD*%
%TA.AperFunction,ComponentPad*%
%ADD22RoundRect,0.250000X-0.550000X0.550000X-0.550000X-0.550000X0.550000X-0.550000X0.550000X0.550000X0*%
%TD*%
%TA.AperFunction,ComponentPad*%
%ADD23C,2.000000*%
%TD*%
%TA.AperFunction,Conductor*%
%ADD24C,0.500000*%
%TD*%
%TA.AperFunction,Conductor*%
%ADD25C,1.000000*%
%TD*%
G04 APERTURE END LIST*
D10*
%TO.P,C5,1*%
%TO.N,GND*%
X69500000Y-116500000D03*
D11*
%TO.P,C5,2*%
X72000000Y-116500000D03*
%TD*%
%TO.P,C6,2*%
%TO.N,GND*%
X59794888Y-109000000D03*
D10*
%TO.P,C6,1*%
%TO.N,Net-(U1-+Vout)*%
X57294888Y-109000000D03*
%TD*%
D11*
%TO.P,C7,2*%
%TO.N,GND*%
X57500000Y-118000000D03*
D12*
%TO.P,C7,1*%
%TO.N,Net-(J2-Pin_1)*%
X60000000Y-118000000D03*
%TD*%
D13*
%TO.P,U1,1,AC/L_1*%
%TO.N,Net-(U1-AC{slash}L)*%
X94500000Y-87712500D03*
D14*
%TO.P,U1,2,AC/N_2*%
%TO.N,Net-(U1-AC{slash}N)*%
X89500000Y-87712500D03*
%TO.P,U1,3,-Vout_3*%
%TO.N,GND*%
X99500000Y-116792500D03*
%TO.P,U1,4,+Vout_4*%
%TO.N,Net-(U1-+Vout)*%
X84500000Y-116792500D03*
%TD*%
D11*
%TO.P,TH1,1*%
%TO.N,Net-(F1-Pad2)*%
X46500000Y-71200000D03*
%TO.P,TH1,2*%
%TO.N,Net-(C1-Pad1)*%
X51500000Y-73000000D03*
%TD*%
D15*
%TO.P,RV1,1*%
%TO.N,Net-(F1-Pad2)*%
X46750000Y-63700000D03*
%TO.P,RV1,2*%
%TO.N,Net-(J1-Pin_2)*%
X39250000Y-62300000D03*
%TD*%
D16*
%TO.P,J2,1,Pin_1_1*%
%TO.N,Net-(J2-Pin_1)*%
X22882500Y-111550000D03*
D17*
%TO.P,J2,2,Pin_2_2*%
%TO.N,GND*%
X22882500Y-116550000D03*
%TD*%
D18*
%TO.P,J1,1,Pin_1_1*%
%TO.N,Net-(J1-Pin_1)*%
X22000000Y-69000000D03*
D17*
%TO.P,J1,2,Pin_2_2*%
%TO.N,Net-(J1-Pin_2)*%
X22000000Y-64000000D03*
%TD*%
D19*
%TO.P,FL1,1,1_1*%
%TO.N,Net-(C1-Pad1)*%
X95000000Y-62000000D03*
D20*
%TO.P,FL1,2,2_2*%
%TO.N,Net-(J1-Pin_2)*%
X85000000Y-62000000D03*
%TO.P,FL1,3,3_3*%
%TO.N,Net-(U1-AC{slash}N)*%
X85000000Y-74600000D03*
%TO.P,FL1,4,4_4*%
%TO.N,Net-(U1-AC{slash}L)*%
X95000000Y-74600000D03*
%TD*%
D21*
%TO.P,F1,1*%
%TO.N,Net-(J1-Pin_1)*%
X32950000Y-71100000D03*
%TO.P,F1,2*%
%TO.N,Net-(F1-Pad2)*%
X38050000Y-72900000D03*
%TD*%
D11*
%TO.P,C8,1*%
%TO.N,Net-(J2-Pin_1)*%
X36850000Y-111300000D03*
%TO.P,C8,2*%
%TO.N,GND*%
X36850000Y-116300000D03*
%TD*%
D22*
%TO.P,C4,1*%
%TO.N,Net-(U1-+Vout)*%
X69500000Y-107500000D03*
D11*
%TO.P,C4,2*%
%TO.N,GND*%
X69500000Y-110000000D03*
%TD*%
D23*
%TO.P,C3,1*%
%TO.N,Net-(U1-AC{slash}N)*%
X41750000Y-86250000D03*
%TO.P,C3,2*%
%TO.N,GND*%
X41750000Y-93750000D03*
%TD*%
%TO.P,C2,1*%
%TO.N,Net-(U1-AC{slash}L)*%
X63500000Y-94500000D03*
%TO.P,C2,2*%
%TO.N,Net-(U1-AC{slash}N)*%
X63500000Y-87000000D03*
%TD*%
%TO.P,C1,1*%
%TO.N,Net-(C1-Pad1)*%
X65000000Y-71000000D03*
%TO.P,C1,2*%
%TO.N,Net-(J1-Pin_2)*%
X65000000Y-63500000D03*
%TD*%
%TO.N,GND*%
D24*
X19500000Y-113000000D02*
X19500000Y-108000000D01*
X22882500Y-116382500D02*
X19500000Y-113000000D01*
X27500000Y-108000000D02*
X41750000Y-93750000D01*
X22882500Y-116550000D02*
X22882500Y-116382500D01*
X19500000Y-108000000D02*
X27500000Y-108000000D01*
X23132500Y-116300000D02*
X22882500Y-116550000D01*
X36850000Y-116300000D02*
X23132500Y-116300000D01*
X48700000Y-116300000D02*
X36850000Y-116300000D01*
X49500000Y-115500000D02*
X48700000Y-116300000D01*
X49500000Y-115500000D02*
X50000000Y-115500000D01*
X52000000Y-118000000D02*
X49500000Y-115500000D01*
X57500000Y-118000000D02*
X52000000Y-118000000D01*
%TO.N,Net-(J2-Pin_1)*%
X41300000Y-111300000D02*
X36850000Y-111300000D01*
X55000000Y-113000000D02*
X43000000Y-113000000D01*
X60000000Y-118000000D02*
X55000000Y-113000000D01*
X43000000Y-113000000D02*
X41300000Y-111300000D01*
%TO.N,GND*%
X60000000Y-120500000D02*
X57500000Y-118000000D01*
X67000000Y-120500000D02*
X60000000Y-120500000D01*
X69500000Y-116500000D02*
X69500000Y-118000000D01*
X69500000Y-118000000D02*
X67000000Y-120500000D01*
X69500000Y-110000000D02*
X69500000Y-116500000D01*
X59794888Y-109000000D02*
X60794888Y-110000000D01*
X60794888Y-110000000D02*
X69500000Y-110000000D01*
%TO.N,Net-(U1-+Vout)*%
D25*
X51000000Y-109000000D02*
X49500000Y-110500000D01*
X57294888Y-109000000D02*
X51000000Y-109000000D01*
X58794888Y-107500000D02*
X57294888Y-109000000D01*
X69500000Y-107500000D02*
X58794888Y-107500000D01*
X79000000Y-107500000D02*
X69500000Y-107500000D01*
X84500000Y-113000000D02*
X79000000Y-107500000D01*
X84500000Y-116792500D02*
X84500000Y-113000000D01*
%TO.N,GND*%
D24*
X98000000Y-120000000D02*
X75500000Y-120000000D01*
X99500000Y-118500000D02*
X98000000Y-120000000D01*
X75500000Y-120000000D02*
X72000000Y-116500000D01*
X99500000Y-116792500D02*
X99500000Y-118500000D01*
%TO.N,Net-(U1-AC{slash}L)*%
D25*
X87712500Y-94500000D02*
X63500000Y-94500000D01*
X94500000Y-87712500D02*
X87712500Y-94500000D01*
%TO.N,Net-(U1-AC{slash}N)*%
X42500000Y-87000000D02*
X41750000Y-86250000D01*
X63500000Y-87000000D02*
X42500000Y-87000000D01*
X72600000Y-87000000D02*
X63500000Y-87000000D01*
X85000000Y-74600000D02*
X72600000Y-87000000D01*
X89500000Y-79100000D02*
X85000000Y-74600000D01*
X89500000Y-87712500D02*
X89500000Y-79100000D01*
%TO.N,Net-(U1-AC{slash}L)*%
X95000000Y-87212500D02*
X94500000Y-87712500D01*
X95000000Y-74600000D02*
X95000000Y-87212500D01*
%TO.N,Net-(F1-Pad2)*%
X39750000Y-71200000D02*
X38050000Y-72900000D01*
X46500000Y-71200000D02*
X39750000Y-71200000D01*
X46750000Y-70950000D02*
X46500000Y-71200000D01*
X46750000Y-63700000D02*
X46750000Y-70950000D01*
%TO.N,Net-(C1-Pad1)*%
X62500000Y-73000000D02*
X51500000Y-73000000D01*
X65000000Y-71000000D02*
X64500000Y-71000000D01*
X64500000Y-71000000D02*
X62500000Y-73000000D01*
X91500000Y-65500000D02*
X70000000Y-65500000D01*
X70000000Y-65500000D02*
X70000000Y-66000000D01*
X70000000Y-66000000D02*
X65000000Y-71000000D01*
X95000000Y-62000000D02*
X91500000Y-65500000D01*
%TO.N,Net-(J1-Pin_2)*%
X66500000Y-62000000D02*
X85000000Y-62000000D01*
X65000000Y-63500000D02*
X66500000Y-62000000D01*
X42050000Y-59500000D02*
X61000000Y-59500000D01*
X61000000Y-59500000D02*
X65000000Y-63500000D01*
X39250000Y-62300000D02*
X42050000Y-59500000D01*
%TO.N,Net-(J1-Pin_1)*%
X30850000Y-69000000D02*
X32950000Y-71100000D01*
X22000000Y-69000000D02*
X30850000Y-69000000D01*
%TO.N,Net-(J1-Pin_2)*%
X37550000Y-64000000D02*
X39250000Y-62300000D01*
X22000000Y-64000000D02*
X37550000Y-64000000D01*
%TD*%
M02*
