M48
; DRILL file KiCad 10.0.3 date 2026-05-25T02:32:15
; FORMAT={-:-/ absolute / metric / decimal}
; #@! TF.CreationDate,2026-05-25T02:32:15+03:00
; #@! TF.GenerationSoftware,Kicad,Pcbnew,10.0.3
; #@! TF.FileFunction,Plated,1,2,PTH
FMAT,2
METRIC
; #@! TA.AperFunction,Plated,PTH,ComponentDrill
T1C0.600
; #@! TA.AperFunction,Plated,PTH,ComponentDrill
T2C0.800
; #@! TA.AperFunction,Plated,PTH,ComponentDrill
T3C0.850
; #@! TA.AperFunction,Plated,PTH,ComponentDrill
T4C1.000
; #@! TA.AperFunction,Plated,PTH,ComponentDrill
T5C1.300
; #@! TA.AperFunction,Plated,PTH,ComponentDrill
T6C2.100
%
G90
G05
T1
X46.5Y-71.2
X51.5Y-73.0
T2
X36.85Y-111.3
X36.85Y-116.3
X39.25Y-62.3
X46.75Y-63.7
X57.295Y-109.0
X57.5Y-118.0
X59.795Y-109.0
X60.0Y-118.0
X69.5Y-107.5
X69.5Y-110.0
X69.5Y-116.5
X72.0Y-116.5
T3
X32.95Y-71.1
X38.05Y-72.9
T4
X41.75Y-86.25
X41.75Y-93.75
X63.5Y-87.0
X63.5Y-94.5
X65.0Y-63.5
X65.0Y-71.0
X84.5Y-116.792
X89.5Y-87.712
X94.5Y-87.712
X99.5Y-116.792
T5
X22.0Y-64.0
X22.0Y-69.0
X22.883Y-111.55
X22.883Y-116.55
T6
X85.0Y-62.0
X85.0Y-74.6
X95.0Y-62.0
X95.0Y-74.6
M30
